<mxfile host="app.diagrams.net" modified="2022-01-26T02:37:51.091Z" agent="5.0 (Macintosh; Intel Mac OS X 10_15_7) AppleWebKit/537.36 (KHTML, like Gecko) Chrome/97.0.4692.99 Safari/537.36" etag="904mU7RbGWdhoVu5Dq1U" version="16.4.5" type="github" pages="2">
  <diagram id="daerU7M2orvDxg-1wAje" name="基本结构">
    <mxGraphModel dx="1186" dy="771" grid="1" gridSize="10" guides="1" tooltips="1" connect="1" arrows="1" fold="1" page="1" pageScale="1" pageWidth="827" pageHeight="1169" math="0" shadow="0">
      <root>
        <mxCell id="EoMGH0sb_LN5MaA3UBuf-0" />
        <mxCell id="EoMGH0sb_LN5MaA3UBuf-1" parent="EoMGH0sb_LN5MaA3UBuf-0" />
        <mxCell id="Vqx4UVxAWvLZs1yAu2pe-0" value="题库组卷" style="whiteSpace=wrap;html=1;" vertex="1" parent="EoMGH0sb_LN5MaA3UBuf-1">
          <mxGeometry x="50" y="210" width="120" height="60" as="geometry" />
        </mxCell>
        <mxCell id="Vqx4UVxAWvLZs1yAu2pe-1" value="作业批改" style="whiteSpace=wrap;html=1;" vertex="1" parent="EoMGH0sb_LN5MaA3UBuf-1">
          <mxGeometry x="200" y="210" width="120" height="60" as="geometry" />
        </mxCell>
        <mxCell id="Vqx4UVxAWvLZs1yAu2pe-2" value="学情分析" style="whiteSpace=wrap;html=1;" vertex="1" parent="EoMGH0sb_LN5MaA3UBuf-1">
          <mxGeometry x="350" y="210" width="120" height="60" as="geometry" />
        </mxCell>
        <mxCell id="Vqx4UVxAWvLZs1yAu2pe-3" value="教务管理" style="whiteSpace=wrap;html=1;" vertex="1" parent="EoMGH0sb_LN5MaA3UBuf-1">
          <mxGeometry x="490" y="210" width="120" height="60" as="geometry" />
        </mxCell>
        <mxCell id="Vqx4UVxAWvLZs1yAu2pe-4" value="考试管理" style="whiteSpace=wrap;html=1;" vertex="1" parent="EoMGH0sb_LN5MaA3UBuf-1">
          <mxGeometry x="630" y="210" width="120" height="60" as="geometry" />
        </mxCell>
        <mxCell id="Vqx4UVxAWvLZs1yAu2pe-5" value="教师端" style="text;html=1;align=center;verticalAlign=middle;resizable=0;points=[];autosize=1;strokeColor=none;fillColor=none;" vertex="1" parent="EoMGH0sb_LN5MaA3UBuf-1">
          <mxGeometry x="50" y="180" width="50" height="20" as="geometry" />
        </mxCell>
        <mxCell id="Vqx4UVxAWvLZs1yAu2pe-6" value="" style="whiteSpace=wrap;html=1;" vertex="1" parent="EoMGH0sb_LN5MaA3UBuf-1">
          <mxGeometry x="50" y="550" width="120" height="60" as="geometry" />
        </mxCell>
        <mxCell id="Vqx4UVxAWvLZs1yAu2pe-7" value="一体机" style="text;html=1;align=center;verticalAlign=middle;resizable=0;points=[];autosize=1;strokeColor=none;fillColor=none;" vertex="1" parent="EoMGH0sb_LN5MaA3UBuf-1">
          <mxGeometry x="50" y="520" width="50" height="20" as="geometry" />
        </mxCell>
        <mxCell id="Vqx4UVxAWvLZs1yAu2pe-8" value="打印服务" style="text;html=1;align=center;verticalAlign=middle;resizable=0;points=[];autosize=1;strokeColor=none;fillColor=none;" vertex="1" parent="EoMGH0sb_LN5MaA3UBuf-1">
          <mxGeometry x="50" y="640" width="60" height="20" as="geometry" />
        </mxCell>
        <mxCell id="Vqx4UVxAWvLZs1yAu2pe-10" value="课代表" style="text;html=1;align=center;verticalAlign=middle;resizable=0;points=[];autosize=1;strokeColor=none;fillColor=none;" vertex="1" parent="EoMGH0sb_LN5MaA3UBuf-1">
          <mxGeometry x="50" y="300" width="50" height="20" as="geometry" />
        </mxCell>
        <mxCell id="Vqx4UVxAWvLZs1yAu2pe-11" value="学生端" style="text;html=1;align=center;verticalAlign=middle;resizable=0;points=[];autosize=1;strokeColor=none;fillColor=none;" vertex="1" parent="EoMGH0sb_LN5MaA3UBuf-1">
          <mxGeometry x="50" y="410" width="50" height="20" as="geometry" />
        </mxCell>
        <mxCell id="Vqx4UVxAWvLZs1yAu2pe-12" value="首页" style="text;html=1;align=center;verticalAlign=middle;resizable=0;points=[];autosize=1;strokeColor=none;fillColor=none;" vertex="1" parent="EoMGH0sb_LN5MaA3UBuf-1">
          <mxGeometry x="50" y="110" width="40" height="20" as="geometry" />
        </mxCell>
      </root>
    </mxGraphModel>
  </diagram>
  <diagram id="zoKsP2lTlBXDv2URI6SE" name="学情分析">
    <mxGraphModel dx="1186" dy="771" grid="1" gridSize="10" guides="1" tooltips="1" connect="1" arrows="1" fold="1" page="1" pageScale="1" pageWidth="827" pageHeight="1169" math="0" shadow="0">
      <root>
        <mxCell id="0" />
        <mxCell id="1" parent="0" />
        <mxCell id="3DgGRWuIZkIvsbjOyCLM-1" value="老师" style="rounded=0;whiteSpace=wrap;html=1;" parent="1" vertex="1">
          <mxGeometry x="190" y="330" width="76" height="40" as="geometry" />
        </mxCell>
        <mxCell id="3DgGRWuIZkIvsbjOyCLM-2" value="学段" style="whiteSpace=wrap;html=1;" parent="1" vertex="1">
          <mxGeometry x="190" y="400" width="80" height="40" as="geometry" />
        </mxCell>
        <mxCell id="3DgGRWuIZkIvsbjOyCLM-4" value="学校" style="whiteSpace=wrap;html=1;" parent="1" vertex="1">
          <mxGeometry x="190" y="260" width="80" height="40" as="geometry" />
        </mxCell>
        <mxCell id="3DgGRWuIZkIvsbjOyCLM-5" value="科目" style="whiteSpace=wrap;html=1;" parent="1" vertex="1">
          <mxGeometry x="350" y="310" width="70" height="40" as="geometry" />
        </mxCell>
        <mxCell id="3DgGRWuIZkIvsbjOyCLM-6" value="年级" style="whiteSpace=wrap;html=1;" parent="1" vertex="1">
          <mxGeometry x="350" y="370" width="80" height="40" as="geometry" />
        </mxCell>
      </root>
    </mxGraphModel>
  </diagram>
</mxfile>
